<?xml version="1.0" encoding="UTF-8" standalone="no"?>
<!-- Created with Inkscape (http://www.inkscape.org/) -->

<svg
   xmlns:dc="http://purl.org/dc/elements/1.1/"
   xmlns:cc="http://creativecommons.org/ns#"
   xmlns:rdf="http://www.w3.org/1999/02/22-rdf-syntax-ns#"
   xmlns:svg="http://www.w3.org/2000/svg"
   xmlns="http://www.w3.org/2000/svg"
   xmlns:sodipodi="http://sodipodi.sourceforge.net/DTD/sodipodi-0.dtd"
   xmlns:inkscape="http://www.inkscape.org/namespaces/inkscape"
   width="245.21529mm"
   height="212.6084mm"
   viewBox="0 0 245.21529 212.6084"
   version="1.1"
   id="svg4526"
   inkscape:version="0.92.2 2405546, 2018-03-11"
   sodipodi:docname="convolution.svg">
  <defs
     id="defs4520">
    <inkscape:perspective
       sodipodi:type="inkscape:persp3d"
       inkscape:vp_x="0 : 148.49999 : 1"
       inkscape:vp_y="0 : 999.99995 : 0"
       inkscape:vp_z="210.00001 : 148.49999 : 1"
       inkscape:persp3d-origin="105.00001 : 98.999995 : 1"
       id="perspective5194" />
  </defs>
  <sodipodi:namedview
     id="base"
     pagecolor="#ffffff"
     bordercolor="#666666"
     borderopacity="1.0"
     inkscape:pageopacity="0.0"
     inkscape:pageshadow="2"
     inkscape:zoom="0.49497475"
     inkscape:cx="527.57773"
     inkscape:cy="311.06374"
     inkscape:document-units="mm"
     inkscape:current-layer="layer1"
     showgrid="false"
     inkscape:window-width="1920"
     inkscape:window-height="1035"
     inkscape:window-x="0"
     inkscape:window-y="0"
     inkscape:window-maximized="1" />
  <metadata
     id="metadata4523">
    <rdf:RDF>
      <cc:Work
         rdf:about="">
        <dc:format>image/svg+xml</dc:format>
        <dc:type
           rdf:resource="http://purl.org/dc/dcmitype/StillImage" />
        <dc:title></dc:title>
      </cc:Work>
    </rdf:RDF>
  </metadata>
  <g
     inkscape:label="Layer 1"
     inkscape:groupmode="layer"
     id="layer1"
     transform="translate(27.157869,-37.783077)">
    <g
       id="g7156">
      <rect
         transform="matrix(0.76379311,-0.64546114,0,1,0,0)"
         height="18.036753"
         y="102.48364"
         x="-22.980936"
         width="16.133463"
         id="rect5071-9"
         style="fill:#ffffff;fill-opacity:1;stroke:#000000;stroke-width:1.35402501;stroke-miterlimit:4;stroke-dasharray:none;stroke-opacity:1" />
      <rect
         transform="matrix(0.76379311,-0.64546114,0,1,0,0)"
         height="18.036753"
         y="102.48364"
         x="-6.8474727"
         width="16.133463"
         id="rect5071-3"
         style="fill:#ffffff;fill-opacity:1;stroke:#000000;stroke-width:1.35402501;stroke-miterlimit:4;stroke-dasharray:none;stroke-opacity:1" />
      <rect
         transform="matrix(0.76379311,-0.64546114,0,1,0,0)"
         height="18.036753"
         y="102.48364"
         x="9.2859907"
         width="16.133463"
         id="rect5071-6"
         style="fill:#ffffff;fill-opacity:1;stroke:#000000;stroke-width:1.35402501;stroke-miterlimit:4;stroke-dasharray:none;stroke-opacity:1" />
      <rect
         transform="matrix(0.76379311,-0.64546114,0,1,0,0)"
         height="18.036753"
         y="102.48364"
         x="25.419456"
         width="16.133463"
         id="rect5071-0"
         style="fill:#ffffff;fill-opacity:1;stroke:#000000;stroke-width:1.35402501;stroke-miterlimit:4;stroke-dasharray:none;stroke-opacity:1" />
      <rect
         transform="matrix(0.76379311,-0.64546114,0,1,0,0)"
         height="18.036753"
         y="102.48364"
         x="41.552917"
         width="16.133463"
         id="rect5071-62"
         style="fill:#ffffff;fill-opacity:1;stroke:#000000;stroke-width:1.35402501;stroke-miterlimit:4;stroke-dasharray:none;stroke-opacity:1" />
      <rect
         transform="matrix(0.76379311,-0.64546114,0,1,0,0)"
         height="18.036753"
         y="120.52041"
         x="41.552917"
         width="16.133463"
         id="rect5071-61"
         style="fill:#ffffff;fill-opacity:1;stroke:#000000;stroke-width:1.35402501;stroke-miterlimit:4;stroke-dasharray:none;stroke-opacity:1" />
      <rect
         transform="matrix(0.76379311,-0.64546114,0,1,0,0)"
         height="18.036753"
         y="120.52041"
         x="-22.980936"
         width="16.133463"
         id="rect5071-02"
         style="fill:#ffffff;fill-opacity:1;stroke:#000000;stroke-width:1.35402501;stroke-miterlimit:4;stroke-dasharray:none;stroke-opacity:1" />
      <rect
         transform="matrix(0.76379311,-0.64546114,0,1,0,0)"
         height="18.036753"
         y="138.55714"
         x="-22.980936"
         width="16.133463"
         id="rect5071-9-6"
         style="fill:#ffffff;fill-opacity:1;stroke:#000000;stroke-width:1.35402501;stroke-miterlimit:4;stroke-dasharray:none;stroke-opacity:1" />
      <rect
         transform="matrix(0.76379311,-0.64546114,0,1,0,0)"
         height="18.036753"
         y="138.55714"
         x="41.552929"
         width="16.133463"
         id="rect5071-62-3"
         style="fill:#ffffff;fill-opacity:1;stroke:#000000;stroke-width:1.35402501;stroke-miterlimit:4;stroke-dasharray:none;stroke-opacity:1" />
      <rect
         transform="matrix(0.76379311,-0.64546114,0,1,0,0)"
         height="18.036753"
         y="156.59389"
         x="41.552929"
         width="16.133463"
         id="rect5071-61-1"
         style="fill:#ffffff;fill-opacity:1;stroke:#000000;stroke-width:1.35402501;stroke-miterlimit:4;stroke-dasharray:none;stroke-opacity:1" />
      <g
         id="g7103">
        <g
           id="g6281"
           transform="matrix(1.2322628,-1.0413524,0,1.8036752,-5.9404744,-89.093648)">
          <rect
             height="10"
             y="118.99825"
             x="20.576519"
             width="10"
             id="rect5071-8"
             style="fill:#bfbfbf;fill-opacity:1;stroke:#000000;stroke-width:0.79374999;stroke-miterlimit:4;stroke-dasharray:none;stroke-opacity:1" />
          <rect
             height="10"
             y="118.99825"
             x="10.576518"
             width="10"
             id="rect5071-7"
             style="fill:#bfbfbf;fill-opacity:1;stroke:#000000;stroke-width:0.79374999;stroke-miterlimit:4;stroke-dasharray:none;stroke-opacity:1" />
          <rect
             height="10"
             y="118.99825"
             x="0.57651836"
             width="10"
             id="rect5071-92"
             style="fill:#bfbfbf;fill-opacity:1;stroke:#000000;stroke-width:0.79374999;stroke-miterlimit:4;stroke-dasharray:none;stroke-opacity:1" />
          <rect
             height="10"
             y="128.99825"
             x="0.57651836"
             width="10"
             id="rect5071-3-1"
             style="fill:#bfbfbf;fill-opacity:1;stroke:#000000;stroke-width:0.79374999;stroke-miterlimit:4;stroke-dasharray:none;stroke-opacity:1" />
          <rect
             height="10"
             y="128.99825"
             x="10.576526"
             width="10"
             id="rect5071-6-2"
             style="fill:#7f7f7f;fill-opacity:1;stroke:#000000;stroke-width:0.79374999;stroke-miterlimit:4;stroke-dasharray:none;stroke-opacity:1" />
          <rect
             height="10"
             y="128.99825"
             x="20.576527"
             width="10"
             id="rect5071-0-9"
             style="fill:#bfbfbf;fill-opacity:1;stroke:#000000;stroke-width:0.79374999;stroke-miterlimit:4;stroke-dasharray:none;stroke-opacity:1" />
          <rect
             height="10"
             y="138.99825"
             x="20.576527"
             width="10"
             id="rect5071-8-9"
             style="fill:#bfbfbf;fill-opacity:1;stroke:#000000;stroke-width:0.79374999;stroke-miterlimit:4;stroke-dasharray:none;stroke-opacity:1" />
          <rect
             height="10"
             y="138.99825"
             x="10.576526"
             width="10"
             id="rect5071-7-4"
             style="fill:#bfbfbf;fill-opacity:1;stroke:#000000;stroke-width:0.79374999;stroke-miterlimit:4;stroke-dasharray:none;stroke-opacity:1" />
          <rect
             height="10"
             y="138.99825"
             x="0.57651836"
             width="10"
             id="rect5071-92-7"
             style="fill:#bfbfbf;fill-opacity:1;stroke:#000000;stroke-width:0.79374999;stroke-miterlimit:4;stroke-dasharray:none;stroke-opacity:1" />
        </g>
      </g>
      <rect
         transform="matrix(0.76379311,-0.64546114,0,1,0,0)"
         height="18.036753"
         y="156.59389"
         x="-22.980936"
         width="16.133463"
         id="rect5071-02-8"
         style="fill:#ffffff;fill-opacity:1;stroke:#000000;stroke-width:1.35402501;stroke-miterlimit:4;stroke-dasharray:none;stroke-opacity:1" />
      <rect
         transform="matrix(0.76379311,-0.64546114,0,1,0,0)"
         height="18.036753"
         y="174.63065"
         x="-22.980942"
         width="16.133463"
         id="rect5071-9-4"
         style="fill:#ffffff;fill-opacity:1;stroke:#000000;stroke-width:1.35402501;stroke-miterlimit:4;stroke-dasharray:none;stroke-opacity:1" />
      <rect
         transform="matrix(0.76379311,-0.64546114,0,1,0,0)"
         height="18.036753"
         y="174.63065"
         x="-6.8474727"
         width="16.133463"
         id="rect5071-3-5"
         style="fill:#ffffff;fill-opacity:1;stroke:#000000;stroke-width:1.35402501;stroke-miterlimit:4;stroke-dasharray:none;stroke-opacity:1" />
      <rect
         transform="matrix(0.76379311,-0.64546114,0,1,0,0)"
         height="18.036753"
         y="174.63065"
         x="9.2859907"
         width="16.133463"
         id="rect5071-6-0"
         style="fill:#ffffff;fill-opacity:1;stroke:#000000;stroke-width:1.35402501;stroke-miterlimit:4;stroke-dasharray:none;stroke-opacity:1" />
      <rect
         transform="matrix(0.76379311,-0.64546114,0,1,0,0)"
         height="18.036753"
         y="174.63065"
         x="25.419456"
         width="16.133463"
         id="rect5071-0-3"
         style="fill:#ffffff;fill-opacity:1;stroke:#000000;stroke-width:1.35402501;stroke-miterlimit:4;stroke-dasharray:none;stroke-opacity:1" />
      <rect
         transform="matrix(0.76379311,-0.64546114,0,1,0,0)"
         height="18.036753"
         y="174.63065"
         x="41.552917"
         width="16.133463"
         id="rect5071-62-6"
         style="fill:#ffffff;fill-opacity:1;stroke:#000000;stroke-width:1.35402501;stroke-miterlimit:4;stroke-dasharray:none;stroke-opacity:1" />
      <rect
         transform="matrix(0.76379311,-0.64546114,0,1,0,0)"
         height="18.036753"
         y="192.66739"
         x="41.552917"
         width="16.133463"
         id="rect5071-61-10"
         style="fill:#ffffff;fill-opacity:1;stroke:#000000;stroke-width:1.35402501;stroke-miterlimit:4;stroke-dasharray:none;stroke-opacity:1" />
      <rect
         transform="matrix(0.76379311,-0.64546114,0,1,0,0)"
         height="18.036753"
         y="192.66739"
         x="25.419456"
         width="16.133463"
         id="rect5071-8-6"
         style="fill:#ffffff;fill-opacity:1;stroke:#000000;stroke-width:1.35402501;stroke-miterlimit:4;stroke-dasharray:none;stroke-opacity:1" />
      <rect
         transform="matrix(0.76379311,-0.64546114,0,1,0,0)"
         height="18.036753"
         y="192.66739"
         x="9.2859907"
         width="16.133463"
         id="rect5071-7-3"
         style="fill:#ffffff;fill-opacity:1;stroke:#000000;stroke-width:1.35402501;stroke-miterlimit:4;stroke-dasharray:none;stroke-opacity:1" />
      <rect
         transform="matrix(0.76379311,-0.64546114,0,1,0,0)"
         height="18.036753"
         y="192.66739"
         x="-6.8474727"
         width="16.133463"
         id="rect5071-92-2"
         style="fill:#ffffff;fill-opacity:1;stroke:#000000;stroke-width:1.35402501;stroke-miterlimit:4;stroke-dasharray:none;stroke-opacity:1" />
      <rect
         transform="matrix(0.76379311,-0.64546114,0,1,0,0)"
         height="18.036753"
         y="192.66739"
         x="-22.980942"
         width="16.133463"
         id="rect5071-02-0"
         style="fill:#ffffff;fill-opacity:1;stroke:#000000;stroke-width:1.35402501;stroke-miterlimit:4;stroke-dasharray:none;stroke-opacity:1" />
      <rect
         transform="matrix(0.76379311,-0.64546114,0,1,0,0)"
         height="18.036753"
         y="102.48363"
         x="57.686394"
         width="16.133463"
         id="rect5071-62-61"
         style="fill:#ffffff;fill-opacity:1;stroke:#000000;stroke-width:1.35402501;stroke-miterlimit:4;stroke-dasharray:none;stroke-opacity:1" />
      <rect
         transform="matrix(0.76379311,-0.64546114,0,1,0,0)"
         height="18.036753"
         y="120.52038"
         x="57.686394"
         width="16.133463"
         id="rect5071-61-5"
         style="fill:#ffffff;fill-opacity:1;stroke:#000000;stroke-width:1.35402501;stroke-miterlimit:4;stroke-dasharray:none;stroke-opacity:1" />
      <rect
         transform="matrix(0.76379311,-0.64546114,0,1,0,0)"
         height="18.036753"
         y="138.55714"
         x="57.686394"
         width="16.133463"
         id="rect5071-62-3-5"
         style="fill:#ffffff;fill-opacity:1;stroke:#000000;stroke-width:1.35402501;stroke-miterlimit:4;stroke-dasharray:none;stroke-opacity:1" />
      <rect
         transform="matrix(0.76379311,-0.64546114,0,1,0,0)"
         height="18.036753"
         y="156.59389"
         x="57.686394"
         width="16.133463"
         id="rect5071-61-1-4"
         style="fill:#ffffff;fill-opacity:1;stroke:#000000;stroke-width:1.35402501;stroke-miterlimit:4;stroke-dasharray:none;stroke-opacity:1" />
      <rect
         transform="matrix(0.76379311,-0.64546114,0,1,0,0)"
         height="18.036753"
         y="174.63065"
         x="57.686394"
         width="16.133463"
         id="rect5071-62-6-7"
         style="fill:#ffffff;fill-opacity:1;stroke:#000000;stroke-width:1.35402501;stroke-miterlimit:4;stroke-dasharray:none;stroke-opacity:1" />
      <rect
         transform="matrix(0.76379311,-0.64546114,0,1,0,0)"
         height="18.036753"
         y="192.66739"
         x="57.686394"
         width="16.133463"
         id="rect5071-61-10-6"
         style="fill:#ffffff;fill-opacity:1;stroke:#000000;stroke-width:1.35402501;stroke-miterlimit:4;stroke-dasharray:none;stroke-opacity:1" />
      <rect
         transform="matrix(0.76379311,-0.64546114,0,1,0,0)"
         height="18.036753"
         y="102.48363"
         x="73.819862"
         width="16.133463"
         id="rect5071-62-2"
         style="fill:#ffffff;fill-opacity:1;stroke:#000000;stroke-width:1.35402501;stroke-miterlimit:4;stroke-dasharray:none;stroke-opacity:1" />
      <rect
         transform="matrix(0.76379311,-0.64546114,0,1,0,0)"
         height="18.036753"
         y="120.52041"
         x="73.819862"
         width="16.133463"
         id="rect5071-61-54"
         style="fill:#ffffff;fill-opacity:1;stroke:#000000;stroke-width:1.35402501;stroke-miterlimit:4;stroke-dasharray:none;stroke-opacity:1" />
      <rect
         transform="matrix(0.76379311,-0.64546114,0,1,0,0)"
         height="18.036753"
         y="138.55714"
         x="73.819862"
         width="16.133463"
         id="rect5071-62-3-7"
         style="fill:#ffffff;fill-opacity:1;stroke:#000000;stroke-width:1.35402501;stroke-miterlimit:4;stroke-dasharray:none;stroke-opacity:1" />
      <rect
         transform="matrix(0.76379311,-0.64546114,0,1,0,0)"
         height="18.036753"
         y="156.59389"
         x="73.819862"
         width="16.133463"
         id="rect5071-61-1-44"
         style="fill:#ffffff;fill-opacity:1;stroke:#000000;stroke-width:1.35402501;stroke-miterlimit:4;stroke-dasharray:none;stroke-opacity:1" />
      <rect
         transform="matrix(0.76379311,-0.64546114,0,1,0,0)"
         height="18.036753"
         y="174.63065"
         x="73.819862"
         width="16.133463"
         id="rect5071-62-6-3"
         style="fill:#ffffff;fill-opacity:1;stroke:#000000;stroke-width:1.35402501;stroke-miterlimit:4;stroke-dasharray:none;stroke-opacity:1" />
      <rect
         transform="matrix(0.76379311,-0.64546114,0,1,0,0)"
         height="18.036753"
         y="192.66739"
         x="73.819862"
         width="16.133463"
         id="rect5071-61-10-0"
         style="fill:#ffffff;fill-opacity:1;stroke:#000000;stroke-width:1.35402501;stroke-miterlimit:4;stroke-dasharray:none;stroke-opacity:1" />
      <rect
         transform="matrix(0.76379311,-0.64546114,0,1,0,0)"
         height="18.036753"
         y="210.70415"
         x="41.552929"
         width="16.133463"
         id="rect5071-61-10-7"
         style="fill:#ffffff;fill-opacity:1;stroke:#000000;stroke-width:1.35402501;stroke-miterlimit:4;stroke-dasharray:none;stroke-opacity:1" />
      <rect
         transform="matrix(0.76379311,-0.64546114,0,1,0,0)"
         height="18.036753"
         y="210.70415"
         x="25.419443"
         width="16.133463"
         id="rect5071-8-6-8"
         style="fill:#ffffff;fill-opacity:1;stroke:#000000;stroke-width:1.35402501;stroke-miterlimit:4;stroke-dasharray:none;stroke-opacity:1" />
      <rect
         transform="matrix(0.76379311,-0.64546114,0,1,0,0)"
         height="18.036753"
         y="210.70415"
         x="9.2860031"
         width="16.133463"
         id="rect5071-7-3-6"
         style="fill:#ffffff;fill-opacity:1;stroke:#000000;stroke-width:1.35402501;stroke-miterlimit:4;stroke-dasharray:none;stroke-opacity:1" />
      <rect
         transform="matrix(0.76379311,-0.64546114,0,1,0,0)"
         height="18.036753"
         y="210.70415"
         x="-6.847466"
         width="16.133463"
         id="rect5071-92-2-8"
         style="fill:#ffffff;fill-opacity:1;stroke:#000000;stroke-width:1.35402501;stroke-miterlimit:4;stroke-dasharray:none;stroke-opacity:1" />
      <rect
         transform="matrix(0.76379311,-0.64546114,0,1,0,0)"
         height="18.036753"
         y="210.70415"
         x="-22.980942"
         width="16.133463"
         id="rect5071-02-0-8"
         style="fill:#ffffff;fill-opacity:1;stroke:#000000;stroke-width:1.35402501;stroke-miterlimit:4;stroke-dasharray:none;stroke-opacity:1" />
      <rect
         transform="matrix(0.76379311,-0.64546114,0,1,0,0)"
         height="18.036753"
         y="210.70415"
         x="57.686394"
         width="16.133463"
         id="rect5071-61-10-6-4"
         style="fill:#ffffff;fill-opacity:1;stroke:#000000;stroke-width:1.35402501;stroke-miterlimit:4;stroke-dasharray:none;stroke-opacity:1" />
      <rect
         transform="matrix(0.76379311,-0.64546114,0,1,0,0)"
         height="18.036753"
         y="210.70415"
         x="73.819862"
         width="16.133463"
         id="rect5071-61-10-0-3"
         style="fill:#ffffff;fill-opacity:1;stroke:#000000;stroke-width:1.35402501;stroke-miterlimit:4;stroke-dasharray:none;stroke-opacity:1" />
    </g>
    <g
       id="g7272"
       style="fill:none;fill-opacity:0.5;stroke:#000000;stroke-width:2;stroke-miterlimit:4;stroke-dasharray:none;stroke-dashoffset:0;stroke-opacity:1">
      <path
         inkscape:connector-curvature="0"
         id="path6699"
         d="m -5.2300539,179.05042 c 82.7938579,0.2342 82.7938579,0.2342 82.7938579,0.2342"
         style="fill:none;fill-opacity:0.5;stroke:#000000;stroke-width:2;stroke-linecap:butt;stroke-linejoin:miter;stroke-miterlimit:4;stroke-dasharray:none;stroke-dashoffset:0;stroke-opacity:1" />
      <path
         inkscape:connector-curvature="0"
         id="path6701"
         d="m -5.2300539,124.94019 c 82.7938579,0.0876 82.7938579,0.0876 82.7938579,0.0876"
         style="fill:none;fill-opacity:0.5;stroke:#000000;stroke-width:2;stroke-linecap:butt;stroke-linejoin:miter;stroke-miterlimit:4;stroke-dasharray:none;stroke-dashoffset:0;stroke-opacity:1" />
      <path
         inkscape:connector-curvature="0"
         id="path6703"
         d="m 31.737831,93.699617 c 82.682309,0.003 82.682309,0.003 82.682309,0.003"
         style="fill:none;fill-opacity:0.5;stroke:#000000;stroke-width:2;stroke-linecap:butt;stroke-linejoin:miter;stroke-miterlimit:4;stroke-dasharray:none;stroke-dashoffset:0;stroke-opacity:1" />
      <path
         inkscape:connector-curvature="0"
         id="path6705"
         d="m 31.737839,147.80984 c 82.682321,0.1496 82.682321,0.1496 82.682321,0.1496"
         style="fill:none;fill-opacity:0.5;stroke:#000000;stroke-width:2;stroke-linecap:butt;stroke-linejoin:miter;stroke-miterlimit:4;stroke-dasharray:none;stroke-dashoffset:0;stroke-opacity:1" />
    </g>
    <rect
       style="fill:none;fill-opacity:1;stroke:#000000;stroke-width:0.79374999;stroke-miterlimit:4;stroke-dasharray:none;stroke-opacity:1"
       id="rect5071"
       width="10"
       x="47.039436"
       y="133.69832"
       height="0" />
    <g
       id="g6011"
       transform="matrix(1.2285446,-1.0441721,0,1.8085592,-101.12909,214.30107)"
       style="fill:#ffffff;fill-opacity:0.5">
      <rect
         height="10"
         y="34.614582"
         x="165.45088"
         width="10"
         id="rect5071-8-1"
         style="fill:#ffffff;fill-opacity:0.5;stroke:#000000;stroke-width:0.79374999;stroke-miterlimit:4;stroke-dasharray:none;stroke-opacity:1" />
      <rect
         height="10"
         y="34.614582"
         x="155.45088"
         width="10"
         id="rect5071-7-49"
         style="fill:#ffffff;fill-opacity:0.5;stroke:#000000;stroke-width:0.79374999;stroke-miterlimit:4;stroke-dasharray:none;stroke-opacity:1" />
      <rect
         height="10"
         y="34.614582"
         x="145.45088"
         width="10"
         id="rect5071-92-20"
         style="fill:#ffffff;fill-opacity:0.5;stroke:#000000;stroke-width:0.79374999;stroke-miterlimit:4;stroke-dasharray:none;stroke-opacity:1" />
      <rect
         height="10"
         y="44.614582"
         x="145.45088"
         width="10"
         id="rect5071-3-1-6"
         style="fill:#ffffff;fill-opacity:0.5;stroke:#000000;stroke-width:0.79374999;stroke-miterlimit:4;stroke-dasharray:none;stroke-opacity:1" />
      <rect
         height="10"
         y="44.614582"
         x="155.4509"
         width="10"
         id="rect5071-6-2-8"
         style="fill:#ffffff;fill-opacity:0.5;stroke:#000000;stroke-width:0.79374999;stroke-miterlimit:4;stroke-dasharray:none;stroke-opacity:1" />
      <rect
         height="10"
         y="44.614582"
         x="165.4509"
         width="10"
         id="rect5071-0-9-9"
         style="fill:#ffffff;fill-opacity:0.5;stroke:#000000;stroke-width:0.79374999;stroke-miterlimit:4;stroke-dasharray:none;stroke-opacity:1" />
      <rect
         height="10"
         y="54.614586"
         x="165.4509"
         width="10"
         id="rect5071-8-9-2"
         style="fill:#ffffff;fill-opacity:0.5;stroke:#000000;stroke-width:0.79374999;stroke-miterlimit:4;stroke-dasharray:none;stroke-opacity:1" />
      <rect
         height="10"
         y="54.614586"
         x="155.4509"
         width="10"
         id="rect5071-7-4-6"
         style="fill:#ffffff;fill-opacity:0.5;stroke:#000000;stroke-width:0.79374999;stroke-miterlimit:4;stroke-dasharray:none;stroke-opacity:1" />
      <rect
         height="10"
         y="54.614586"
         x="145.45088"
         width="10"
         id="rect5071-92-7-6"
         style="fill:#ffffff;fill-opacity:0.5;stroke:#000000;stroke-width:0.79374999;stroke-miterlimit:4;stroke-dasharray:none;stroke-opacity:1" />
    </g>
    <g
       id="g7278"
       style="fill:none;fill-opacity:0.5;stroke:#000000;stroke-width:2;stroke-miterlimit:4;stroke-dasharray:none;stroke-dashoffset:0;stroke-opacity:1">
      <path
         inkscape:connector-curvature="0"
         id="path6707"
         d="m 77.563804,125.02784 c 69.982206,7.52878 69.982206,7.52878 69.982206,7.52878 v 0 0"
         style="fill:none;fill-opacity:0.5;stroke:#000000;stroke-width:2;stroke-linecap:butt;stroke-linejoin:miter;stroke-miterlimit:4;stroke-dasharray:none;stroke-dashoffset:0;stroke-opacity:1" />
      <path
         inkscape:connector-curvature="0"
         id="path6709"
         d="m 114.42014,93.702673 c 45.44817,28.440487 45.44817,28.440487 45.44817,28.440487"
         style="fill:none;fill-opacity:0.5;stroke:#000000;stroke-width:2;stroke-linecap:butt;stroke-linejoin:miter;stroke-miterlimit:4;stroke-dasharray:none;stroke-dashoffset:0;stroke-opacity:1" />
      <path
         inkscape:connector-curvature="0"
         id="path6711"
         d="M 77.563804,179.28462 C 147.54601,150.59325 147.54601,150.59325 147.54601,150.59325"
         style="fill:none;fill-opacity:0.5;stroke:#000000;stroke-width:2;stroke-linecap:butt;stroke-linejoin:miter;stroke-miterlimit:4;stroke-dasharray:none;stroke-dashoffset:0;stroke-opacity:1" />
      <path
         inkscape:connector-curvature="0"
         id="path6713"
         d="m 114.42016,147.95944 c 45.44815,-7.77965 45.44815,-7.77965 45.44815,-7.77965"
         style="fill:none;fill-opacity:0.5;stroke:#000000;stroke-width:2;stroke-linecap:butt;stroke-linejoin:miter;stroke-miterlimit:4;stroke-dasharray:none;stroke-dashoffset:0;stroke-opacity:1" />
    </g>
    <g
       id="g7264">
      <rect
         transform="matrix(0.76378655,-0.6454689,0,1,0,0)"
         height="18.036633"
         y="221.17311"
         x="160.91071"
         width="16.133163"
         id="rect5071-9-0"
         style="fill:#ffffff;fill-opacity:0.5;stroke:#000000;stroke-width:1.35400796;stroke-miterlimit:4;stroke-dasharray:none;stroke-opacity:1" />
      <rect
         transform="matrix(0.76378655,-0.6454689,0,1,0,0)"
         height="18.036633"
         y="221.17311"
         x="177.04387"
         width="16.133163"
         id="rect5071-3-4"
         style="fill:#ffffff;fill-opacity:0.5;stroke:#000000;stroke-width:1.35400796;stroke-miterlimit:4;stroke-dasharray:none;stroke-opacity:1" />
      <rect
         transform="matrix(0.76378655,-0.6454689,0,1,0,0)"
         height="18.036633"
         y="221.17311"
         x="193.17703"
         width="16.133163"
         id="rect5071-6-8"
         style="fill:#ffffff;fill-opacity:0.5;stroke:#000000;stroke-width:1.35400796;stroke-miterlimit:4;stroke-dasharray:none;stroke-opacity:1" />
      <rect
         transform="matrix(0.76378655,-0.6454689,0,1,0,0)"
         height="18.036633"
         y="221.17311"
         x="209.3102"
         width="16.133163"
         id="rect5071-0-8"
         style="fill:#ffffff;fill-opacity:0.5;stroke:#000000;stroke-width:1.35400796;stroke-miterlimit:4;stroke-dasharray:none;stroke-opacity:1" />
      <rect
         transform="matrix(0.76378655,-0.6454689,0,1,0,0)"
         height="18.036633"
         y="221.17311"
         x="225.44336"
         width="16.133163"
         id="rect5071-62-8"
         style="fill:#ffffff;fill-opacity:0.5;stroke:#000000;stroke-width:1.35400796;stroke-miterlimit:4;stroke-dasharray:none;stroke-opacity:1" />
      <rect
         transform="matrix(0.76378655,-0.6454689,0,1,0,0)"
         height="18.036633"
         y="239.20975"
         x="225.44336"
         width="16.133163"
         id="rect5071-61-97"
         style="fill:#ffffff;fill-opacity:0.5;stroke:#000000;stroke-width:1.35400796;stroke-miterlimit:4;stroke-dasharray:none;stroke-opacity:1" />
      <rect
         transform="matrix(0.76378655,-0.6454689,0,1,0,0)"
         height="18.036633"
         y="239.20975"
         x="160.91071"
         width="16.133163"
         id="rect5071-02-3"
         style="fill:#ffffff;fill-opacity:0.5;stroke:#000000;stroke-width:1.35400796;stroke-miterlimit:4;stroke-dasharray:none;stroke-opacity:1" />
      <rect
         transform="matrix(0.76378655,-0.6454689,0,1,0,0)"
         height="18.036633"
         y="257.24637"
         x="160.91071"
         width="16.133163"
         id="rect5071-9-6-03"
         style="fill:#ffffff;fill-opacity:0.5;stroke:#000000;stroke-width:1.35400796;stroke-miterlimit:4;stroke-dasharray:none;stroke-opacity:1" />
      <rect
         transform="matrix(0.76378655,-0.6454689,0,1,0,0)"
         height="18.036633"
         y="257.24637"
         x="209.3102"
         width="16.133163"
         id="rect5071-0-9-2"
         style="fill:#ffffff;fill-opacity:0.5;stroke:#000000;stroke-width:1.35400796;stroke-miterlimit:4;stroke-dasharray:none;stroke-opacity:1" />
      <rect
         transform="matrix(0.76378655,-0.6454689,0,1,0,0)"
         height="18.036633"
         y="257.24637"
         x="225.44337"
         width="16.133163"
         id="rect5071-62-3-54"
         style="fill:#ffffff;fill-opacity:0.5;stroke:#000000;stroke-width:1.35400796;stroke-miterlimit:4;stroke-dasharray:none;stroke-opacity:1" />
      <rect
         transform="matrix(0.76378655,-0.6454689,0,1,0,0)"
         height="18.036633"
         y="275.28302"
         x="225.44337"
         width="16.133163"
         id="rect5071-61-1-0"
         style="fill:#ffffff;fill-opacity:0.5;stroke:#000000;stroke-width:1.35400796;stroke-miterlimit:4;stroke-dasharray:none;stroke-opacity:1" />
      <rect
         transform="matrix(0.76378655,-0.6454689,0,1,0,0)"
         height="18.036633"
         y="275.28302"
         x="193.17703"
         width="16.133163"
         id="rect5071-7-4-9"
         style="fill:#ffffff;fill-opacity:0.5;stroke:#000000;stroke-width:1.35400796;stroke-miterlimit:4;stroke-dasharray:none;stroke-opacity:1" />
      <rect
         transform="matrix(0.76378655,-0.6454689,0,1,0,0)"
         height="18.036633"
         y="239.20973"
         x="209.3102"
         width="16.133163"
         id="rect5071-8-7"
         style="fill:#ffffff;fill-opacity:0.5;stroke:#000000;stroke-width:1.35400796;stroke-miterlimit:4;stroke-dasharray:none;stroke-opacity:1" />
      <rect
         transform="matrix(0.76378655,-0.6454689,0,1,0,0)"
         height="18.036633"
         y="239.20973"
         x="193.17703"
         width="16.133163"
         id="rect5071-7-6"
         style="fill:#ffffff;fill-opacity:0.5;stroke:#000000;stroke-width:1.35400796;stroke-miterlimit:4;stroke-dasharray:none;stroke-opacity:1" />
      <rect
         transform="matrix(0.76378655,-0.6454689,0,1,0,0)"
         height="18.036633"
         y="239.20973"
         x="177.04387"
         width="16.133163"
         id="rect5071-92-4"
         style="fill:#ffffff;fill-opacity:0.5;stroke:#000000;stroke-width:1.35400796;stroke-miterlimit:4;stroke-dasharray:none;stroke-opacity:1" />
      <rect
         transform="matrix(0.76378655,-0.6454689,0,1,0,0)"
         height="18.036633"
         y="257.24637"
         x="177.04387"
         width="16.133163"
         id="rect5071-3-1-0"
         style="fill:#ffffff;fill-opacity:0.5;stroke:#000000;stroke-width:1.35400796;stroke-miterlimit:4;stroke-dasharray:none;stroke-opacity:1" />
      <rect
         transform="matrix(0.76378655,-0.6454689,0,1,0,0)"
         height="18.036633"
         y="257.24637"
         x="193.17703"
         width="16.133163"
         id="rect5071-6-2-9"
         style="fill:#8c8c8c;fill-opacity:0.5;stroke:#000000;stroke-width:1.35400796;stroke-miterlimit:4;stroke-dasharray:none;stroke-opacity:1" />
      <rect
         transform="matrix(0.76378655,-0.6454689,0,1,0,0)"
         height="18.036633"
         y="275.28302"
         x="209.3102"
         width="16.133163"
         id="rect5071-8-9-5"
         style="fill:#ffffff;fill-opacity:0.5;stroke:#000000;stroke-width:1.35400796;stroke-miterlimit:4;stroke-dasharray:none;stroke-opacity:1" />
      <rect
         transform="matrix(0.76378655,-0.6454689,0,1,0,0)"
         height="18.036633"
         y="275.28302"
         x="177.04387"
         width="16.133163"
         id="rect5071-92-7-4"
         style="fill:#ffffff;fill-opacity:0.5;stroke:#000000;stroke-width:1.35400796;stroke-miterlimit:4;stroke-dasharray:none;stroke-opacity:1" />
      <rect
         transform="matrix(0.76378655,-0.6454689,0,1,0,0)"
         height="18.036633"
         y="275.28302"
         x="160.91071"
         width="16.133163"
         id="rect5071-02-8-6"
         style="fill:#ffffff;fill-opacity:0.5;stroke:#000000;stroke-width:1.35400796;stroke-miterlimit:4;stroke-dasharray:none;stroke-opacity:1" />
      <rect
         transform="matrix(0.76378655,-0.6454689,0,1,0,0)"
         height="18.036633"
         y="293.31964"
         x="160.91071"
         width="16.133163"
         id="rect5071-9-4-9"
         style="fill:#ffffff;fill-opacity:0.5;stroke:#000000;stroke-width:1.35400796;stroke-miterlimit:4;stroke-dasharray:none;stroke-opacity:1" />
      <rect
         transform="matrix(0.76378655,-0.6454689,0,1,0,0)"
         height="18.036633"
         y="293.31964"
         x="177.04387"
         width="16.133163"
         id="rect5071-3-5-2"
         style="fill:#ffffff;fill-opacity:0.5;stroke:#000000;stroke-width:1.35400796;stroke-miterlimit:4;stroke-dasharray:none;stroke-opacity:1" />
      <rect
         transform="matrix(0.76378655,-0.6454689,0,1,0,0)"
         height="18.036633"
         y="293.31964"
         x="193.17703"
         width="16.133163"
         id="rect5071-6-0-2"
         style="fill:#ffffff;fill-opacity:0.5;stroke:#000000;stroke-width:1.35400796;stroke-miterlimit:4;stroke-dasharray:none;stroke-opacity:1" />
      <rect
         transform="matrix(0.76378655,-0.6454689,0,1,0,0)"
         height="18.036633"
         y="293.31964"
         x="209.3102"
         width="16.133163"
         id="rect5071-0-3-4"
         style="fill:#ffffff;fill-opacity:0.5;stroke:#000000;stroke-width:1.35400796;stroke-miterlimit:4;stroke-dasharray:none;stroke-opacity:1" />
      <rect
         transform="matrix(0.76378655,-0.6454689,0,1,0,0)"
         height="18.036633"
         y="293.31964"
         x="225.44336"
         width="16.133163"
         id="rect5071-62-6-77"
         style="fill:#ffffff;fill-opacity:0.5;stroke:#000000;stroke-width:1.35400796;stroke-miterlimit:4;stroke-dasharray:none;stroke-opacity:1" />
      <rect
         transform="matrix(0.76378655,-0.6454689,0,1,0,0)"
         height="18.036633"
         y="311.35629"
         x="225.44336"
         width="16.133163"
         id="rect5071-61-10-5"
         style="fill:#ffffff;fill-opacity:0.5;stroke:#000000;stroke-width:1.35400796;stroke-miterlimit:4;stroke-dasharray:none;stroke-opacity:1" />
      <rect
         transform="matrix(0.76378655,-0.6454689,0,1,0,0)"
         height="18.036633"
         y="311.35629"
         x="209.3102"
         width="16.133163"
         id="rect5071-8-6-4"
         style="fill:#ffffff;fill-opacity:0.5;stroke:#000000;stroke-width:1.35400796;stroke-miterlimit:4;stroke-dasharray:none;stroke-opacity:1" />
      <rect
         transform="matrix(0.76378655,-0.6454689,0,1,0,0)"
         height="18.036633"
         y="311.35629"
         x="193.17703"
         width="16.133163"
         id="rect5071-7-3-8"
         style="fill:#ffffff;fill-opacity:0.5;stroke:#000000;stroke-width:1.35400796;stroke-miterlimit:4;stroke-dasharray:none;stroke-opacity:1" />
      <rect
         transform="matrix(0.76378655,-0.6454689,0,1,0,0)"
         height="18.036633"
         y="311.35629"
         x="177.04387"
         width="16.133163"
         id="rect5071-92-2-1"
         style="fill:#ffffff;fill-opacity:0.5;stroke:#000000;stroke-width:1.35400796;stroke-miterlimit:4;stroke-dasharray:none;stroke-opacity:1" />
      <rect
         transform="matrix(0.76378655,-0.6454689,0,1,0,0)"
         height="18.036633"
         y="311.35629"
         x="160.91071"
         width="16.133163"
         id="rect5071-02-0-2"
         style="fill:#ffffff;fill-opacity:0.5;stroke:#000000;stroke-width:1.35400796;stroke-miterlimit:4;stroke-dasharray:none;stroke-opacity:1" />
      <rect
         transform="matrix(0.76378655,-0.6454689,0,1,0,0)"
         height="18.036633"
         y="221.1731"
         x="241.57654"
         width="16.133163"
         id="rect5071-62-61-89"
         style="fill:#ffffff;fill-opacity:0.5;stroke:#000000;stroke-width:1.35400796;stroke-miterlimit:4;stroke-dasharray:none;stroke-opacity:1" />
      <rect
         transform="matrix(0.76378655,-0.6454689,0,1,0,0)"
         height="18.036633"
         y="239.20973"
         x="241.57654"
         width="16.133163"
         id="rect5071-61-5-3"
         style="fill:#ffffff;fill-opacity:0.5;stroke:#000000;stroke-width:1.35400796;stroke-miterlimit:4;stroke-dasharray:none;stroke-opacity:1" />
      <rect
         transform="matrix(0.76378655,-0.6454689,0,1,0,0)"
         height="18.036633"
         y="257.24637"
         x="241.57654"
         width="16.133163"
         id="rect5071-62-3-5-6"
         style="fill:#ffffff;fill-opacity:0.5;stroke:#000000;stroke-width:1.35400796;stroke-miterlimit:4;stroke-dasharray:none;stroke-opacity:1" />
      <rect
         transform="matrix(0.76378655,-0.6454689,0,1,0,0)"
         height="18.036633"
         y="275.28302"
         x="241.57654"
         width="16.133163"
         id="rect5071-61-1-4-8"
         style="fill:#ffffff;fill-opacity:0.5;stroke:#000000;stroke-width:1.35400796;stroke-miterlimit:4;stroke-dasharray:none;stroke-opacity:1" />
      <rect
         transform="matrix(0.76378655,-0.6454689,0,1,0,0)"
         height="18.036633"
         y="293.31964"
         x="241.57654"
         width="16.133163"
         id="rect5071-62-6-7-0"
         style="fill:#ffffff;fill-opacity:0.5;stroke:#000000;stroke-width:1.35400796;stroke-miterlimit:4;stroke-dasharray:none;stroke-opacity:1" />
      <rect
         transform="matrix(0.76378655,-0.6454689,0,1,0,0)"
         height="18.036633"
         y="311.35626"
         x="241.57654"
         width="16.133163"
         id="rect5071-61-10-6-2"
         style="fill:#ffffff;fill-opacity:0.5;stroke:#000000;stroke-width:1.35400796;stroke-miterlimit:4;stroke-dasharray:none;stroke-opacity:1" />
      <rect
         transform="matrix(0.76378655,-0.6454689,0,1,0,0)"
         height="18.036633"
         y="221.1731"
         x="257.70969"
         width="16.133163"
         id="rect5071-62-2-1"
         style="fill:#ffffff;fill-opacity:0.5;stroke:#000000;stroke-width:1.35400796;stroke-miterlimit:4;stroke-dasharray:none;stroke-opacity:1" />
      <rect
         transform="matrix(0.76378655,-0.6454689,0,1,0,0)"
         height="18.036633"
         y="239.20975"
         x="257.70969"
         width="16.133163"
         id="rect5071-61-54-0"
         style="fill:#ffffff;fill-opacity:0.5;stroke:#000000;stroke-width:1.35400796;stroke-miterlimit:4;stroke-dasharray:none;stroke-opacity:1" />
      <rect
         transform="matrix(0.76378655,-0.6454689,0,1,0,0)"
         height="18.036633"
         y="257.24637"
         x="257.70969"
         width="16.133163"
         id="rect5071-62-3-7-5"
         style="fill:#ffffff;fill-opacity:0.5;stroke:#000000;stroke-width:1.35400796;stroke-miterlimit:4;stroke-dasharray:none;stroke-opacity:1" />
      <rect
         transform="matrix(0.76378655,-0.6454689,0,1,0,0)"
         height="18.036633"
         y="275.28302"
         x="257.70969"
         width="16.133163"
         id="rect5071-61-1-44-11"
         style="fill:#ffffff;fill-opacity:0.5;stroke:#000000;stroke-width:1.35400796;stroke-miterlimit:4;stroke-dasharray:none;stroke-opacity:1" />
      <rect
         transform="matrix(0.76378655,-0.6454689,0,1,0,0)"
         height="18.036633"
         y="293.31964"
         x="257.70969"
         width="16.133163"
         id="rect5071-62-6-3-0"
         style="fill:#ffffff;fill-opacity:0.5;stroke:#000000;stroke-width:1.35400796;stroke-miterlimit:4;stroke-dasharray:none;stroke-opacity:1" />
      <rect
         transform="matrix(0.76378655,-0.6454689,0,1,0,0)"
         height="18.036633"
         y="311.35629"
         x="257.70969"
         width="16.133163"
         id="rect5071-61-10-0-8"
         style="fill:#ffffff;fill-opacity:0.5;stroke:#000000;stroke-width:1.35400796;stroke-miterlimit:4;stroke-dasharray:none;stroke-opacity:1" />
      <rect
         transform="matrix(0.76378655,-0.6454689,0,1,0,0)"
         height="18.036633"
         y="329.39291"
         x="225.44337"
         width="16.133163"
         id="rect5071-61-10-7-5"
         style="fill:#ffffff;fill-opacity:0.5;stroke:#000000;stroke-width:1.35400796;stroke-miterlimit:4;stroke-dasharray:none;stroke-opacity:1" />
      <rect
         transform="matrix(0.76378655,-0.6454689,0,1,0,0)"
         height="18.036633"
         y="329.39291"
         x="209.31017"
         width="16.133163"
         id="rect5071-8-6-8-0"
         style="fill:#ffffff;fill-opacity:0.5;stroke:#000000;stroke-width:1.35400796;stroke-miterlimit:4;stroke-dasharray:none;stroke-opacity:1" />
      <rect
         transform="matrix(0.76378655,-0.6454689,0,1,0,0)"
         height="18.036633"
         y="329.39291"
         x="193.17703"
         width="16.133163"
         id="rect5071-7-3-6-6"
         style="fill:#ffffff;fill-opacity:0.5;stroke:#000000;stroke-width:1.35400796;stroke-miterlimit:4;stroke-dasharray:none;stroke-opacity:1" />
      <rect
         transform="matrix(0.76378655,-0.6454689,0,1,0,0)"
         height="18.036633"
         y="329.39291"
         x="177.04387"
         width="16.133163"
         id="rect5071-92-2-8-4"
         style="fill:#ffffff;fill-opacity:0.5;stroke:#000000;stroke-width:1.35400796;stroke-miterlimit:4;stroke-dasharray:none;stroke-opacity:1" />
      <rect
         transform="matrix(0.76378655,-0.6454689,0,1,0,0)"
         height="18.036633"
         y="329.39291"
         x="160.91071"
         width="16.133163"
         id="rect5071-02-0-8-6"
         style="fill:#ffffff;fill-opacity:0.5;stroke:#000000;stroke-width:1.35400796;stroke-miterlimit:4;stroke-dasharray:none;stroke-opacity:1" />
      <rect
         transform="matrix(0.76378655,-0.6454689,0,1,0,0)"
         height="18.036633"
         y="329.39291"
         x="241.57654"
         width="16.133163"
         id="rect5071-61-10-6-4-2"
         style="fill:#ffffff;fill-opacity:0.5;stroke:#000000;stroke-width:1.35400796;stroke-miterlimit:4;stroke-dasharray:none;stroke-opacity:1" />
      <rect
         transform="matrix(0.76378655,-0.6454689,0,1,0,0)"
         height="18.036633"
         y="329.39291"
         x="257.70969"
         width="16.133163"
         id="rect5071-61-10-0-3-5"
         style="fill:#ffffff;fill-opacity:0.5;stroke:#000000;stroke-width:1.35400796;stroke-miterlimit:4;stroke-dasharray:none;stroke-opacity:1" />
    </g>
    <path
       style="fill:none;stroke:#000000;stroke-width:2;stroke-linecap:butt;stroke-linejoin:miter;stroke-miterlimit:4;stroke-dasharray:none;stroke-opacity:1"
       d="M -5.2300539,124.94019 C 7.0925734,114.52667 31.737831,93.699599 31.737831,93.699599 l 10e-6,54.110251 -36.9678949,31.24058 z"
       id="path7302"
       inkscape:connector-curvature="0" />
    <path
       style="fill:none;stroke:#000000;stroke-width:2;stroke-linecap:butt;stroke-linejoin:miter;stroke-miterlimit:4;stroke-dasharray:none;stroke-opacity:1"
       d="M 77.563801,125.02784 C 114.42014,93.702617 114.42014,93.702617 114.42014,93.702617 l 2e-5,54.256823 v 0 l -36.856356,31.32518 z"
       id="path7324"
       inkscape:connector-curvature="0" />
    <path
       style="fill:none;stroke:#000000;stroke-width:2;stroke-linecap:butt;stroke-linejoin:miter;stroke-miterlimit:4;stroke-dasharray:none;stroke-opacity:1"
       d="m 147.54601,132.55662 c 1e-5,18.0366 1e-5,18.03663 1e-5,18.03663 l 12.32229,-10.41348 v -18.03661 z"
       id="path7326"
       inkscape:connector-curvature="0" />
  </g>
</svg>
